<svg xmlns="http://www.w3.org/2000/svg" width="1024" height="1024" viewBox="0 0 1024 1024" role="img" aria-labelledby="title description">
  <title id="title">Flavoneer F logo</title>
  <desc id="description">An amber Fraunces ExtraBold letter F on a pale mint background.</desc>
  <defs>
    <radialGradient id="background" cx="50%" cy="46%" r="70%">
      <stop offset="0" stop-color="#e9f8ea"/>
      <stop offset="1" stop-color="#d2f2d4"/>
    </radialGradient>
    <linearGradient id="letter" x1="0" y1="0" x2="0.8" y2="1">
      <stop offset="0" stop-color="#ffb132"/>
      <stop offset="1" stop-color="#f5a623"/>
    </linearGradient>
  </defs>

  <rect width="1024" height="1024" fill="url(#background)"/>

  <!-- Fraunces ExtraBold 800, converted from the exact font glyph to a path. -->
  <path
    d="M895 1400Q939 1400 969 1408.5Q999 1417 1023.5 1424.5Q1048 1432 1072 1432Q1115 1432 1136.5 1411Q1158 1390 1173 1339L1259 1036Q1268 1007 1251 987.5Q1234 968 1204 963Q1180 959 1156.5 968Q1133 977 1118 1008Q1064 1116 1014.5 1172.5Q965 1229 912.5 1249.5Q860 1270 794 1270H660V205Q660 181 671.5 164Q683 147 710 142L778 129Q808 123 821 107Q834 91 834 61Q834 33 815 16.5Q796 0 756 0H170Q130 0 111 16.5Q92 33 92 61Q92 110 141 128L184 142Q210 151 222.5 166Q235 181 235 205V1195Q235 1219 222.5 1234Q210 1249 184 1258L141 1272Q92 1290 92 1339Q92 1368 111 1384Q130 1400 170 1400ZM505 733H786Q850 733 877.5 758.5Q905 784 927 859Q936 887 952 898Q968 909 990 910Q1043 910 1055 859L1133 544Q1141 511 1131 493Q1121 475 1097 466Q1071 457 1049 465Q1027 473 1007 499Q978 541 953 564.5Q928 588 896 597Q864 606 813 606H505Z"
    transform="translate(216 858) scale(.46 -.46)"
    fill="#102f27"
    opacity=".35"
  />
  <path
    d="M895 1400Q939 1400 969 1408.5Q999 1417 1023.5 1424.5Q1048 1432 1072 1432Q1115 1432 1136.5 1411Q1158 1390 1173 1339L1259 1036Q1268 1007 1251 987.5Q1234 968 1204 963Q1180 959 1156.5 968Q1133 977 1118 1008Q1064 1116 1014.5 1172.5Q965 1229 912.5 1249.5Q860 1270 794 1270H660V205Q660 181 671.5 164Q683 147 710 142L778 129Q808 123 821 107Q834 91 834 61Q834 33 815 16.5Q796 0 756 0H170Q130 0 111 16.5Q92 33 92 61Q92 110 141 128L184 142Q210 151 222.5 166Q235 181 235 205V1195Q235 1219 222.5 1234Q210 1249 184 1258L141 1272Q92 1290 92 1339Q92 1368 111 1384Q130 1400 170 1400ZM505 733H786Q850 733 877.5 758.5Q905 784 927 859Q936 887 952 898Q968 909 990 910Q1043 910 1055 859L1133 544Q1141 511 1131 493Q1121 475 1097 466Q1071 457 1049 465Q1027 473 1007 499Q978 541 953 564.5Q928 588 896 597Q864 606 813 606H505Z"
    transform="translate(201 842) scale(.46 -.46)"
    fill="url(#letter)"
    stroke="#173e33"
    stroke-width="32"
    stroke-linejoin="round"
  />
</svg>
